<svg xmlns="http://www.w3.org/2000/svg" version="1.1" x="0px" y="0px" viewBox="0 0 30 30" style="enable-background:new 0 0 30 30;" xml:space="preserve" fill="#e2e2e2"><g><path d="M7.4631348,18.2578125c-0.5390625,0.2119141-0.8251953,0.828125-0.6503906,1.4042969   c0.0878906,0.2871094,0.1967773,0.5546875,0.309082,0.828125l0.0629883,0.1494141   c0.2583008,0.5175781,0.8583984,0.7558594,1.4462891,0.5576172c0.5405273-0.2089844,1.1616211-0.0703125,1.5869141,0.3544922   c0.4316406,0.421875,0.5629883,1.0664063,0.3383789,1.6347656c-0.2392578,0.5742188-0.0170898,1.2167969,0.5170898,1.4960938   c0.2915039,0.1523438,0.597168,0.2851563,0.9223633,0.4042969c0.5517578,0.2158203,1.1787109-0.046875,1.4267578-0.59375   c0.2573242-0.5478516,0.7905273-0.8876953,1.390625-0.8876953c0.6201172,0,1.1835938,0.390625,1.4072266,0.9863281   c0.1762695,0.4306641,0.5976563,0.6923828,1.0375977,0.6923828c0.1210938,0,0.2436523-0.0205078,0.3632813-0.0615234   c0.3676758-0.1123047,0.6850586-0.2333984,0.9609375-0.3642578c0.5302734-0.2402344,0.7797852-0.8525391,0.5786133-1.4296875   c-0.2050781-0.5722656-0.0722656-1.1884766,0.3432617-1.6035156c0.4423828-0.4306641,1.0957031-0.5625,1.6655273-0.3291016   c0.5688477,0.2207031,1.2001953-0.0009766,1.4726563-0.5205078c0.1572266-0.3007813,0.2866211-0.6005859,0.4272461-0.9472656   c0.1860352-0.5605469-0.0717773-1.1552734-0.6245117-1.4199219c-0.5424805-0.2441406-0.8793945-0.7705078-0.8793945-1.3730469   c0-0.6279297,0.3842773-1.1845703,0.9863281-1.4208984c0.5488281-0.2246094,0.8227539-0.8486328,0.628418-1.40625   c-0.1157227-0.3652344-0.2353516-0.6757813-0.359375-0.9355469c-0.2387695-0.5488281-0.8754883-0.8037109-1.4321289-0.5849609   c-0.5703125,0.2050781-1.1889648,0.0732422-1.6035156-0.3427734c-0.4321289-0.4423828-0.5625-1.09375-0.3334961-1.65625   c0.2392578-0.5742188,0.0170898-1.2167969-0.5327148-1.5039063c-0.3012695-0.1435547-0.6035156-0.2871094-0.9130859-0.3984375   c-0.5600586-0.2128906-1.1625977,0.0429688-1.4355469,0.6132813c-0.2431641,0.5283203-0.7827148,0.8691406-1.375,0.8691406   c-0.6274414,0-1.1845703-0.3798828-1.418457-0.9648438c-0.2109375-0.5410156-0.8256836-0.8271484-1.4033203-0.6513672   l-0.0058594,0.0019531c-0.3154297,0.1005859-0.6313477,0.2285156-0.9516602,0.3662109   c-0.5444336,0.2607422-0.7827148,0.8691406-0.5678711,1.4423828c0.2026367,0.5527344,0.065918,1.1767578-0.3476563,1.5908203   c-0.4379883,0.4375-1.0742188,0.5683594-1.6523438,0.3417969c-0.5737305-0.2402344-1.2182617-0.0166016-1.503418,0.5332031   c-0.1435547,0.3007813-0.2861328,0.6025391-0.3969727,0.90625C6.7297363,14.59375,7.0031738,15.2236328,7.552002,15.4599609   c0.5327148,0.2568359,0.8769531,0.7978516,0.8769531,1.3798828C8.4289551,17.4677734,8.0422363,18.0371094,7.4631348,18.2578125z    M7.967041,14.5507813c-0.0605469-0.0263672-0.1123047-0.0878906-0.0834961-0.1621094   c0.1040039-0.2841797,0.2338867-0.5566406,0.355957-0.8134766c0.0512695-0.0976563,0.1650391-0.0820313,0.2348633-0.0517578   c0.9492188,0.3691406,2.0214844,0.1484375,2.7333984-0.5625c0.6879883-0.6875,0.9155273-1.7246094,0.5786133-2.6455078   c-0.0239258-0.0625-0.0322266-0.1474609,0.0424805-0.1835938c0.2714844-0.1162109,0.5546875-0.2324219,0.8383789-0.3232422   c0.0678711-0.0195313,0.1552734-0.0009766,0.1796875,0.0625c0.3881836,0.9707031,1.3100586,1.5976563,2.3486328,1.5976563   c0.9814453,0,1.8779297-0.5693359,2.2797852-1.4443359c0.0209961-0.0429688,0.0795898-0.1416016,0.1850586-0.0996094   c0.2851563,0.1025391,0.5566406,0.2324219,0.8120117,0.3544922c0.097168,0.0507813,0.081543,0.1650391,0.0551758,0.2285156   c-0.3808594,0.9345703-0.1679688,2.0078125,0.5463867,2.7402344c0.6948242,0.6953125,1.7089844,0.9160156,2.6660156,0.5761719   c0.0415039-0.0185547,0.1308594-0.0273438,0.1708984,0.0625c0.1269531,0.2666016,0.2280273,0.5449219,0.3208008,0.8369141   c0.0244141,0.0712891-0.0107422,0.1455078-0.0517578,0.1621094c-0.9804688,0.3847656-1.6142578,1.3076172-1.6142578,2.3496094   c0,0.9863281,0.5766602,1.8828125,1.4584961,2.2802734c0.0522461,0.0244141,0.1337891,0.0839844,0.1079102,0.1650391   c-0.1171875,0.2861328-0.2338867,0.5585938-0.3759766,0.8320313c-0.0478516,0.0908203-0.1660156,0.0732422-0.215332,0.0546875   c-0.934082-0.3798828-2.0083008-0.1669922-2.7397461,0.546875c-0.6850586,0.6845703-0.9135742,1.7255859-0.5830078,2.6484375   c0.0268555,0.0761719,0.0048828,0.1601563-0.0571289,0.1884766c-0.2397461,0.1142578-0.5117188,0.2177734-0.8500977,0.3203125   c-0.0678711,0.0253906-0.1450195-0.0107422-0.1591797-0.0449219c-0.3642578-0.9697266-1.3037109-1.6210938-2.3383789-1.6210938   c-0.9916992,0-1.871582,0.5605469-2.2983398,1.4677734c-0.0263672,0.0585938-0.0917969,0.1054688-0.1655273,0.078125   c-0.2792969-0.1015625-0.546875-0.2167969-0.8134766-0.3554688c-0.097168-0.0507813-0.081543-0.1650391-0.0532227-0.2324219   c0.3769531-0.9521484,0.1552734-2.0224609-0.5615234-2.7226563c-0.7006836-0.7001953-1.7392578-0.9248047-2.6279297-0.5849609   c-0.0268555,0.0097656-0.1591797,0.0458984-0.1982422-0.0292969L8.0466309,20.109375   c-0.1000977-0.2441406-0.1992188-0.4824219-0.2773438-0.7382813c-0.0205078-0.0683594-0.0019531-0.1582031,0.0551758-0.1806641   c0.9594727-0.3671875,1.6044922-1.3115234,1.6044922-2.3505859C9.4289551,15.8759766,8.8625488,14.9804688,7.967041,14.5507813z"></path><path d="M14.998291,21.3876953c2.3969727,0,4.347168-1.9501953,4.347168-4.3476563   c0-2.3964844-1.9501953-4.3466797-4.347168-4.3466797c-2.3950195,0-4.3432617,1.9501953-4.3432617,4.3466797   C10.6550293,19.4375,12.6032715,21.3876953,14.998291,21.3876953z M14.998291,13.6933594   c1.8457031,0,3.347168,1.5009766,3.347168,3.3466797s-1.5014648,3.3476563-3.347168,3.3476563   c-1.8432617,0-3.3432617-1.5019531-3.3432617-3.3476563S13.1550293,13.6933594,14.998291,13.6933594z"></path><path d="M24.8068848,2.5H5.1931152c-1.3818359,0-2.5063477,1.125-2.5063477,2.5068359c0,3.2821474,0,12.1652908,0,19.9873047   C2.6867676,26.3759766,3.8112793,27.5,5.1931152,27.5h19.6137695c1.3818359,0,2.5063477-1.1240234,2.5063477-2.5058594   c0-7.821949,0-16.7057953,0-19.9873047C27.3132324,3.625,26.1887207,2.5,24.8068848,2.5z M3.6867676,5.0068359   C3.6867676,4.1757813,4.3625488,3.5,5.1931152,3.5h19.6137695c0.8305664,0,1.5063477,0.6757813,1.5063477,1.5068359v1.5732422   H3.6867676V5.0068359z M26.3132324,24.9941406c0,0.8300781-0.6757813,1.5058594-1.5063477,1.5058594H5.1931152   c-0.8305664,0-1.5063477-0.6757813-1.5063477-1.5058594V7.5800781h22.6264648V24.9941406z"></path><path d="M19.0725098,4.5400391h-1.2890625c-0.2763672,0-0.5,0.2236328-0.5,0.5s0.2236328,0.5,0.5,0.5h1.2890625   c0.2763672,0,0.5-0.2236328,0.5-0.5S19.348877,4.5400391,19.0725098,4.5400391z"></path><path d="M21.8181152,4.5400391h-1.2890625c-0.2763672,0-0.5,0.2236328-0.5,0.5s0.2236328,0.5,0.5,0.5h1.2890625   c0.2763672,0,0.5-0.2236328,0.5-0.5S22.0944824,4.5400391,21.8181152,4.5400391z"></path><path d="M24.5632324,4.5400391h-1.2890625c-0.2763672,0-0.5,0.2236328-0.5,0.5s0.2236328,0.5,0.5,0.5h1.2890625   c0.2763672,0,0.5-0.2236328,0.5-0.5S24.8395996,4.5400391,24.5632324,4.5400391z"></path></g></svg>