<svg xmlns="http://www.w3.org/2000/svg" xmlns:xlink="http://www.w3.org/1999/xlink" xml:space="preserve" version="1.1" style="shape-rendering:geometricPrecision;text-rendering:geometricPrecision;image-rendering:optimizeQuality;" viewBox="0 0 429 920" x="0px" y="0px" fill-rule="evenodd" clip-rule="evenodd" fill="#e2e2e2"><defs><style type="text/css">
   
  </style></defs><g><path class="fil0" d="M56 0l317 0c31,0 56,25 56,56l0 808c0,31 -25,56 -56,56l-317 0c-31,0 -56,-25 -56,-56l0 -808c0,-31 25,-56 56,-56zm-2 56l320 0 0 808 -320 0 0 -808z"></path><path class="fil0" d="M114 147l201 0c13,0 24,11 24,25 0,13 -11,24 -24,24l-201 0c-14,0 -25,-11 -25,-24 0,-14 11,-25 25,-25z"></path><circle class="fil0" cx="214" cy="752" r="32"></circle><path class="fil0" d="M114 256l201 0c13,0 24,11 24,25 0,14 -11,25 -24,25l-201 0c-14,0 -25,-11 -25,-25 0,-14 11,-25 25,-25z"></path><circle class="fil0" cx="214" cy="641" r="32"></circle></g></svg>