<svg xmlns="http://www.w3.org/2000/svg" viewBox="0 0 32 32" x="0px" y="0px" fill="#e2e2e2" ><g><path d="M27,14.96094a.99974.99974,0,0,0,1-1V6.03906a.99974.99974,0,0,0-1-1H5a.99974.99974,0,0,0-1,1v7.92188a.99974.99974,0,0,0,1,1H15v2.07812H5a.99974.99974,0,0,0-1,1v7.92188a.99974.99974,0,0,0,1,1H27a.99974.99974,0,0,0,1-1V18.03906a.99974.99974,0,0,0-1-1H17V14.96094Zm-1,4.07812v5.92188H6V19.03906Zm-20-12H26v5.92188H6Zm10.00006,3.95239A1.0011,1.0011,0,0,1,16,8.98962,1.0011,1.0011,0,0,1,16.00006,10.99145Zm-4,0A1.0011,1.0011,0,0,1,12,8.98962,1.0011,1.0011,0,0,1,12.00006,10.99145Zm8,0A1.0011,1.0011,0,0,1,20,8.98962,1.0011,1.0011,0,0,1,20.00006,10.99145Zm-4.00012,10.0171A1.00107,1.00107,0,0,1,16,23.01031,1.00107,1.00107,0,0,1,15.99994,21.00855Zm4,0A1.00107,1.00107,0,0,1,20,23.01031,1.00107,1.00107,0,0,1,19.99994,21.00855Zm-7.99988,2.00176A1.00107,1.00107,0,0,1,12,21.00854,1.00107,1.00107,0,0,1,12.00006,23.01031Z"></path></g></svg>