<svg xmlns="http://www.w3.org/2000/svg" version="1.1" x="0px" y="0px" viewBox="0 0 100 100"  ><g transform="translate(0,-952.36215)"><path style="font-size:medium;font-style:normal;font-variant:normal;font-weight:normal;font-stretch:normal;text-indent:0;text-align:start;text-decoration:none;line-height:normal;letter-spacing:normal;word-spacing:normal;text-transform:none;direction:ltr;block-progression:tb;writing-mode:lr-tb;text-anchor:start;baseline-shift:baseline;opacity:1;color:#000000;fill:#e2e2e2;fill-opacity:1;stroke:none;stroke-width:3.99999951999999980;marker:none;visibility:visible;display:inline;overflow:visible;enable-background:accumulate;font-family:Sans;-inkscape-font-specification:Sans" d="M 19.25 22 C 16.424789 22 14 24.25298 14 27.09375 L 14 62.875 C 14 65.7158 16.424752 68 19.25 68 L 48 68 L 48 74 L 39 74 A 2.0001998 2.0001998 0 0 0 38.8125 74 A 2.0021961 2.0021961 0 1 0 39 78 L 61 78 A 2.0001998 2.0001998 0 1 0 61 74 L 52 74 L 52 68 L 80.75 68 C 83.575247 68 86 65.7158 86 62.875 L 86 27.09375 C 86 24.25298 83.57521 22 80.75 22 L 19.25 22 z M 19.25 26 L 80.75 26 C 81.51259 26 82 26.4874 82 27.09375 L 82 62.875 C 82 63.4812 81.512553 64 80.75 64 L 19.25 64 C 18.48744 64 18 63.4812 18 62.875 L 18 27.09375 C 18 26.4874 18.487403 26 19.25 26 z " transform="translate(0,952.36215)" ></path></g></svg>