<svg  xmlns="http://www.w3.org/2000/svg"  version="1.1" x="0px" y="0px" viewBox="0 0 100 100" style="enable-background:new 0 0 100 100;" xml:space="preserve" ><g transform="translate(0,-952.36218)"><path style="text-indent:0;text-transform:none;direction:ltr;block-progression:tb;baseline-shift:baseline;color:#000000;enable-background:accumulate;" d="m 50,958.36217 c -5.58666,0 -10.23819,4.2708 -10.90625,9.6875 -11.11059,3.5271 -19.84371,12.2969 -23.375,23.4063 C 10.27249,992.09587 6,996.75417 6,1002.3622 c 0,5.608 4.27249,10.2975 9.71875,10.9375 3.53166,11.1058 12.2646,19.8512 23.375,23.375 0.65416,5.4313 5.30902,9.6875 10.90625,9.6875 5.59723,0 10.25209,-4.2562 10.90625,-9.6875 11.10995,-3.5225 19.84215,-12.2688 23.37495,-23.375 5.4463,-0.64 9.7188,-5.3295 9.7188,-10.9375 0,-5.60803 -4.2725,-10.26633 -9.7188,-10.90623 -3.5312,-11.1094 -12.2643,-19.8793 -23.37495,-23.4063 -0.66806,-5.4167 -5.31959,-9.6875 -10.90625,-9.6875 z m 0,6 c 2.79693,0 5,2.2032 5,5 0,2.7968 -2.20307,5 -5,5 -2.79693,0 -5,-2.2032 -5,-5 0,-2.7968 2.20307,-5 5,-5 z m -9.90625,9.7188 c 1.77596,3.7074 5.54808,6.2812 9.90625,6.2812 4.35817,0 8.13029,-2.5738 9.90625,-6.2812 8.58965,3.0035 15.39555,9.7902 18.40625,18.375 -3.7149,1.7731 -6.3125,5.5426 -6.3125,9.90623 0,4.3636 2.5976,8.1644 6.3125,9.9375 -3.0118,8.5817 -9.8177,15.3454 -18.40625,18.3437 -1.78106,-3.6939 -5.55795,-6.2812 -9.90625,-6.2812 -4.3483,0 -8.12519,2.5873 -9.90625,6.2812 -8.58968,-2.9995 -15.39558,-9.763 -18.40625,-18.3437 3.71492,-1.7731 6.3125,-5.5739 6.3125,-9.9375 0,-4.36363 -2.59758,-8.13313 -6.3125,-9.90623 3.01067,-8.5848 9.81657,-15.3715 18.40625,-18.375 z M 17,997.36217 c 2.79686,0 5,2.2031 5,5.00003 0,2.7969 -2.20315,5 -5,5 -2.79685,0 -5,-2.2031 -5,-5 0,-2.79693 2.20314,-5.00003 5,-5.00003 z m 66,0 c 2.7969,0 5,2.2031 5,5.00003 0,2.7969 -2.2031,5 -5,5 -2.7969,0 -5,-2.2031 -5,-5 0,-2.79693 2.2031,-5.00003 5,-5.00003 z m -33,33.00003 c 2.79693,0 5,2.2032 5,5 0,2.7968 -2.20307,5 -5,5 -2.79693,0 -5,-2.2032 -5,-5 0,-2.7968 2.20307,-5 5,-5 z" fill="#e2e2e2" fill-opacity="1" stroke="none" marker="none" visibility="visible" display="inline" overflow="visible"></path></g></svg>