<svg xmlns="http://www.w3.org/2000/svg" data-name="Layer 1" viewBox="0 0 100 100" x="0px" y="0px" fill="#e2e2e2"><title>04</title><g data-name="Group"><path data-name="Compound Path" d="M63,7.4H37a3,3,0,0,0-3,3V28.8a5,5,0,0,0-3,4.6V57.6a15,15,0,0,0,15,15h1v17a3,3,0,0,0,6,0v-17h1a15,15,0,0,0,15-15V33.4a5,5,0,0,0-3-4.6V10.4A3,3,0,0,0,63,7.4Zm0,47.3H37V34.4H63ZM60,13.4v15H40v-15ZM54,66.6H46a9,9,0,0,1-8.5-6H62.5A9,9,0,0,1,54,66.6Z"></path><rect data-name="Path" x="41.5" y="15.4" width="8" height="8" rx="3" ry="3"></rect><rect data-name="Path" x="50.5" y="15.4" width="8" height="8" rx="3" ry="3"></rect></g></svg>