<svg xmlns="http://www.w3.org/2000/svg" xmlns:xlink="http://www.w3.org/1999/xlink" version="1.1" x="0px" y="0px" viewBox="0 0 100 100" style="enable-background:new 0 0 100 100;" xml:space="preserve"><path d="M86.56,22.71c-0.67-0.26-1.39-0.42-2.15-0.42H15.59c-0.76,0-1.48,0.16-2.15,0.42L50,48.06L86.56,22.71z"></path><path d="M51.5,53.46c-0.44,0.32-0.97,0.48-1.5,0.48c-0.53,0-1.06-0.16-1.52-0.48l-38.4-26.62C10.04,27.17,10,27.52,10,27.88v44.25  c0,3.09,2.5,5.59,5.59,5.59h68.82c3.09,0,5.59-2.5,5.59-5.59V27.88c0-0.35-0.04-0.71-0.09-1.04L51.5,53.46z"></path></svg>